PathFileType	4	(X/Y/Z)	OpenSim_Sub10_CSBaseline_Gyro.trc
DataRate	CameraRate	NumFrames	NumMarkers	Units	OrigDataRate	OrigDataStartFrame	OrigNumFrames
100	100	17	8	m	100	5695	9111
Frame#	Time	torso_imu_offset_imu	pelvis_imu_offset_imu	tibia_r_imu_offset_imu	femur_r_imu_offset_imu	tibia_l_imu_offset_imu	femur_l_imu_offset_imu	toes_r_imu_offset_imu	toes_l_imu_offset_imu
				X1	Y1	Z1	X2	Y2	Z2	X3	Y3	Z3	X4	Y4	Z4	X5	Y5	Z5	X6	Y6	Z6	X7	Y7	Z7	X8		Y8	Z8	

5695	56.94000000	-0.51141673	-0.08455805	-0.08730440	-0.38018320	-0.07079185	0.17689189	-1.88386723	-0.56372049	-0.37589612	-1.04429472	-0.09157363	2.11644695	0.81212312	-0.16374293	0.51285352	-0.86984247	-0.56260224	0.90318115	-0.41979258	1.97470586	0.09813833	0.04993289	-0.15194370	-0.07471849
5696	56.95000000	-0.53094330	-0.09490945	-0.11215847	-0.37630409	-0.05571592	0.22501633	-2.66859255	-0.69010272	0.03302239	-1.05448456	-0.15966859	1.95803846	0.95034297	-0.17995651	0.49525764	-0.79415113	-0.64332875	0.92291966	-0.86634944	2.37604002	0.43000653	0.11374974	-0.18054619	-0.09022119
5697	56.96000000	-0.52233204	-0.09348150	-0.12134975	-0.36820663	-0.02910309	0.24233124	-2.88565657	-0.69049121	0.47080055	-1.01801196	-0.25923490	1.82514608	0.92374880	-0.14332753	0.45482029	-0.69423428	-0.66846964	0.97742282	-1.00623482	2.82164956	0.67856922	0.13346701	-0.20406563	-0.08672706
5698	56.97000000	-0.53110107	-0.09046433	-0.15347100	-0.34125197	-0.00010085	0.24932860	-2.48815687	-0.57314276	0.91463018	-0.92794543	-0.33600498	1.66045980	0.72811673	-0.06647306	0.40926926	-0.55588002	-0.65604123	1.00406137	-1.00210897	3.22184090	0.84440275	0.13101766	-0.20064339	-0.07208240
5699	56.98000000	-0.53618546	-0.07685805	-0.17742829	-0.30729403	0.03575198	0.25100911	-1.77053318	-0.46908348	1.29472737	-0.77058815	-0.39551489	1.52096478	0.39084475	0.00231745	0.36486667	-0.42714936	-0.58760012	1.05615977	-1.05480501	3.55145037	0.94043289	0.15770228	-0.19599281	-0.06169811
5700	56.99000000	-0.52954703	-0.00271705	-0.20835430	-0.29518434	0.05776931	0.23235864	-0.97359817	-0.52095551	1.64501161	-0.58246312	-0.39741062	1.39055831	0.11892222	0.02619785	0.30964965	-0.36086566	-0.49644766	1.06965184	-1.17901723	3.80769786	0.99088360	0.16913947	-0.18974142	-0.05783236
5701	57.00000000	-0.50402489	0.03172621	-0.25172440	-0.31456195	0.06363329	0.20783407	-0.20694940	-0.64951272	2.02746144	-0.37984862	-0.34370181	1.27826188	-0.03164718	0.01280175	0.25195643	-0.27719304	-0.45709839	1.06892337	-1.40711867	3.97286943	1.01477857	0.18185092	-0.15906181	-0.05684546
5702	57.01000000	-0.45319769	-0.00508548	-0.27934603	-0.32330407	0.07700141	0.20237659	0.43507823	-0.82583722	2.41898114	-0.16325684	-0.28194790	1.18040305	-0.17219476	-0.09399774	0.24371695	-0.19813305	-0.45452874	1.05993869	-1.58536409	4.04220066	0.99897289	0.17809824	-0.15617170	-0.05021208
5703	57.02000000	-0.39136719	-0.05911850	-0.27258800	-0.32155736	0.11266275	0.18989063	0.93310714	-0.93739720	2.77063846	0.06142921	-0.23362994	1.10998496	-0.21895283	-0.19170808	0.25654408	-0.07818331	-0.49532049	1.05919282	-1.60567392	4.04439432	0.98181470	0.13924106	-0.13964630	-0.05381316
5704	57.03000000	-0.36236812	-0.04139546	-0.27495925	-0.31328616	0.13055009	0.18964808	1.31053951	-0.90440469	3.04532643	0.31060719	-0.21485077	1.06265307	-0.09838429	-0.20116541	0.24031350	0.07271907	-0.52575097	1.08002452	-1.60403356	4.11316712	0.96953158	0.10859298	-0.13520888	-0.03849887
5705	57.04000000	-0.33361020	-0.01592954	-0.25761530	-0.28906140	0.13815120	0.19977744	1.45648583	-0.77110481	3.30680165	0.57810658	-0.20675494	1.01634850	-0.00549832	-0.30288239	0.22329529	0.21732367	-0.53027268	1.12586760	-1.54213329	4.26433107	0.98136605	0.04230456	-0.10878213	-0.01250489
5706	57.05000000	-0.31103412	0.01193095	-0.22233955	-0.26290248	0.12478594	0.20685259	1.47195311	-0.62954479	3.59697488	0.83116928	-0.20907929	0.95556756	0.05526044	-0.42391704	0.22587259	0.31022742	-0.53788970	1.15356948	-1.44086074	4.46483563	1.01735819	0.01188419	-0.08601208	0.04479992
5707	57.06000000	-0.26959500	0.03320377	-0.19776973	-0.24437275	0.11326451	0.20947412	1.62476911	-0.58604858	3.90160108	1.02984078	-0.18126700	0.86432370	0.07939030	-0.37078595	0.23790623	0.30860550	-0.51634481	1.17645694	-1.43392638	4.61922366	1.06046148	-0.08497879	-0.05201818	0.11288464
5708	57.07000000	-0.25292821	0.04418632	-0.18065875	-0.24537219	0.11671616	0.20597449	1.90546582	-0.61648894	4.17469997	1.12832039	-0.13109188	0.74418628	0.01604914	-0.27788825	0.26016026	0.24603401	-0.48180689	1.18645056	-1.56016893	4.67217469	1.07240916	-0.17861455	-0.02151155	0.17628735
5709	57.08000000	-0.24058899	0.05165277	-0.15768659	-0.25980527	0.12751952	0.19605819	2.24374536	-0.63623916	4.41289607	1.12862925	-0.06603692	0.60578848	-0.04052662	-0.22868225	0.28215144	0.21044516	-0.47891443	1.16416718	-1.73718002	4.59743477	1.02404393	-0.26211050	0.04440577	0.21458596
5710	57.09000000	-0.21238691	0.03324085	-0.13498932	-0.26803274	0.13947213	0.17607780	2.42050338	-0.51847925	4.64041276	1.05243109	0.00961794	0.45919971	-0.06288517	-0.16774127	0.28807702	0.17897620	-0.46905213	1.15992511	-1.84578014	4.44979055	0.93520067	-0.26460740	0.08752822	0.24243478
5711	57.10000000	-0.19817757	0.00628931	-0.11287885	-0.25596273	0.15771026	0.15298041	2.10673393	-0.27107188	4.83637960	0.93926354	0.06439496	0.31622600	-0.13318070	-0.14010468	0.31139222	0.13570410	-0.43648760	1.14932537	-1.88663081	4.30667632	0.88745403	-0.28825986	0.11023278	0.26398455
